<?xml version="1.0" standalone="no"?>
<!DOCTYPE svg PUBLIC "-//W3C//DTD SVG 20010904//EN"
 "http://www.w3.org/TR/2001/REC-SVG-20010904/DTD/svg10.dtd">
<svg version="1.0" xmlns="http://www.w3.org/2000/svg"
 width="512.000000pt" height="512.000000pt" viewBox="0 0 512.000000 512.000000"
 preserveAspectRatio="xMidYMid meet">
<metadata>
Created by potrace 1.16, written by Peter Selinger 2001-2019
</metadata>
<g transform="translate(0.000000,512.000000) scale(0.100000,-0.100000)"
fill="#000000" stroke="none">
<path d="M431 5104 c-150 -40 -305 -165 -369 -297 -67 -139 -62 29 -60 -2273
l3 -2089 29 -70 c61 -147 151 -246 288 -315 42 -21 101 -43 130 -49 38 -8 656
-11 2138 -9 l2085 3 70 29 c142 59 242 149 310 277 70 133 65 -38 65 2249 0
1821 -2 2073 -15 2124 -53 203 -219 368 -422 421 -85 22 -4170 21 -4252 -1z
m3064 -1503 c159 -72 165 -291 10 -370 l-49 -26 -896 0 -896 0 -49 26 c-123
63 -152 213 -62 316 68 77 5 73 1007 73 844 0 897 -1 935 -19z m-24 -842 c85
-26 149 -111 149 -199 0 -88 -64 -173 -149 -199 -54 -16 -1768 -16 -1822 0
-52 16 -108 64 -130 113 -50 110 7 240 123 283 46 16 1774 18 1829 2z m34
-870 c122 -62 152 -214 62 -316 -68 -77 -5 -73 -1005 -73 -976 0 -931 -3 -996
58 -90 84 -85 236 11 309 69 52 61 52 1003 50 l876 -2 49 -26z"/>
</g>
</svg>
